<svg width="42" height="42" viewBox="0 0 42 42" fill="none" xmlns="http://www.w3.org/2000/svg">
<path d="M21 42C32.598 42 42 32.598 42 21C42 9.40202 32.598 0 21 0C9.40202 0 0 9.40202 0 21C0 32.598 9.40202 42 21 42Z" fill="#464993"/>
<path d="M17.289 19.263V29.656C17.289 30.482 17.012 30.762 16.189 30.768H12.255C11.455 30.762 11.155 30.449 11.155 29.653V19.253C11.155 18.442 11.455 18.141 12.255 18.141H16.185C16.999 18.141 17.285 18.433 17.285 19.259L17.289 19.263Z" fill="white"/>
<path d="M30.837 23.659C30.8038 23.9676 30.6867 24.2613 30.4984 24.5081C30.3101 24.7548 30.0579 24.9454 29.769 25.059L29.858 25.151C30.017 25.3266 30.1376 25.5334 30.212 25.7584C30.2864 25.9833 30.313 26.2212 30.29 26.457C30.2448 26.8249 30.0824 27.1685 29.8269 27.437C29.5714 27.7055 29.2362 27.8847 28.871 27.948C29.0263 28.1202 29.1441 28.3229 29.2169 28.543C29.2897 28.7632 29.316 28.9961 29.294 29.227C29.2451 29.657 29.0379 30.0534 28.7127 30.339C28.3876 30.6247 27.9677 30.779 27.535 30.772H22C20.5875 30.7313 19.1916 30.4552 17.87 29.955C17.8815 29.8554 17.8865 29.7552 17.885 29.655V19.261C17.8859 19.1063 17.8739 18.9517 17.849 18.799L18.24 18.459C18.365 18.359 18.49 18.247 18.613 18.137C19.5051 17.4812 20.1776 16.5705 20.542 15.525C20.6446 15.0728 20.6976 14.6107 20.7 14.147C20.7 13.908 20.718 13.67 20.736 13.434C20.736 13.324 20.754 13.216 20.763 13.106C20.7753 12.7709 20.8232 12.438 20.906 12.113C21.0001 11.8319 21.1874 11.5913 21.437 11.4313C21.6865 11.2712 21.9832 11.2013 22.278 11.233C22.5866 11.2184 22.892 11.3012 23.151 11.4697C23.4099 11.6383 23.6093 11.8839 23.721 12.172C24.2511 13.5163 24.3766 14.9863 24.082 16.401C23.9512 16.9969 23.7842 17.5844 23.582 18.16C23.496 18.44 23.406 18.724 23.323 19.007H28.363C28.7915 19.0023 29.2068 19.1558 29.5293 19.4381C29.8518 19.7204 30.0589 20.1116 30.111 20.537C30.1332 20.773 30.106 21.011 30.0311 21.2358C29.9562 21.4607 29.8352 21.6675 29.676 21.843L29.646 21.876C30.0189 21.9914 30.3407 22.2316 30.5574 22.5563C30.7741 22.881 30.8725 23.2704 30.836 23.659H30.837Z" fill="white"/>
</svg>
