<svg width="63" height="63" viewBox="0 0 63 63" fill="none" xmlns="http://www.w3.org/2000/svg">
<g clip-path="url(#clip0_2_145)">
<path d="M31.5 0C37.7301 0 43.8203 1.84744 49.0005 5.30871C54.1806 8.76997 58.218 13.6896 60.6022 19.4455C62.9864 25.2013 63.6102 31.5349 62.3947 37.6453C61.1793 43.7557 58.1792 49.3685 53.7739 53.7739C49.3685 58.1792 43.7557 61.1793 37.6453 62.3947C31.5349 63.6102 25.2013 62.9864 19.4455 60.6022C13.6896 58.218 8.76997 54.1806 5.30871 49.0005C1.84744 43.8203 0 37.7301 0 31.5C0 23.1457 3.31874 15.1335 9.22614 9.22614C15.1335 3.31874 23.1457 0 31.5 0V0Z" fill="white"/>
<path d="M46.461 23.0531H41.108V16.0881C41.108 15.8316 41.0061 15.5857 40.8248 15.4043C40.6434 15.223 40.3975 15.1211 40.141 15.1211H16.539C16.2826 15.1211 16.0366 15.223 15.8552 15.4043C15.6739 15.5857 15.572 15.8316 15.572 16.0881V43.7531C15.5733 44.8472 16.0086 45.8962 16.7823 46.6699C17.5559 47.4435 18.6049 47.8788 19.699 47.8801H43.299C44.3932 47.8788 45.4421 47.4435 46.2158 46.6699C46.9895 45.8962 47.4247 44.8472 47.426 43.7531V24.0211C47.4263 23.7648 47.3248 23.5189 47.1439 23.3374C46.9629 23.1559 46.7173 23.0536 46.461 23.0531ZM45.494 43.7531C45.5003 44.045 45.4482 44.3351 45.3408 44.6066C45.2334 44.8781 45.0729 45.1253 44.8687 45.334C44.6645 45.5426 44.4207 45.7083 44.1516 45.8215C43.8824 45.9346 43.5935 45.9929 43.3015 45.9929C43.0096 45.9929 42.7206 45.9346 42.4515 45.8215C42.1824 45.7083 41.9386 45.5426 41.7344 45.334C41.5302 45.1253 41.3697 44.8781 41.2623 44.6066C41.1549 44.3351 41.1028 44.045 41.109 43.7531V24.9871H45.494V43.7531ZM19.699 45.9451C19.118 45.9432 18.5612 45.7116 18.1504 45.3007C17.7395 44.8899 17.5079 44.3331 17.506 43.7521V17.0551H39.172V43.7551C39.1712 44.5313 39.3907 45.2917 39.805 45.9481L19.699 45.9451Z" fill="#3E4148"/>
<path d="M35.627 19.6351H21.053C20.926 19.6351 20.8003 19.6601 20.6829 19.7087C20.5656 19.7573 20.459 19.8285 20.3692 19.9183C20.2794 20.0081 20.2082 20.1147 20.1596 20.232C20.111 20.3494 20.086 20.4751 20.086 20.6021V27.4381C20.086 27.6946 20.1879 27.9405 20.3692 28.1219C20.5506 28.3032 20.7965 28.4051 21.053 28.4051H35.627C35.8835 28.4051 36.1294 28.3032 36.3108 28.1219C36.4921 27.9405 36.594 27.6946 36.594 27.4381V20.6021C36.594 20.4751 36.569 20.3494 36.5204 20.232C36.4718 20.1147 36.4006 20.0081 36.3108 19.9183C36.221 19.8285 36.1144 19.7573 35.9971 19.7087C35.8797 19.6601 35.754 19.6351 35.627 19.6351ZM34.66 26.4711H22.021V21.5711H34.66V26.4711Z" fill="#3E4148"/>
<path d="M35.627 41.4331H21.053C20.7964 41.4331 20.5503 41.535 20.3689 41.7165C20.1874 41.8979 20.0855 42.144 20.0855 42.4006C20.0855 42.6572 20.1874 42.9033 20.3689 43.0847C20.5503 43.2662 20.7964 43.3681 21.053 43.3681H35.627C35.8836 43.3681 36.1297 43.2662 36.3111 43.0847C36.4926 42.9033 36.5945 42.6572 36.5945 42.4006C36.5945 42.144 36.4926 41.8979 36.3111 41.7165C36.1297 41.535 35.8836 41.4331 35.627 41.4331Z" fill="#3E4148"/>
<path d="M35.627 37.6911H21.053C20.7965 37.6911 20.5506 37.793 20.3692 37.9743C20.1879 38.1557 20.086 38.4016 20.086 38.6581C20.086 38.9146 20.1879 39.1605 20.3692 39.3419C20.5506 39.5232 20.7965 39.6251 21.053 39.6251H35.627C35.8835 39.6251 36.1294 39.5232 36.3108 39.3419C36.4921 39.1605 36.594 38.9146 36.594 38.6581C36.594 38.4016 36.4921 38.1557 36.3108 37.9743C36.1294 37.793 35.8835 37.6911 35.627 37.6911Z" fill="#3E4148"/>
<path d="M35.627 33.9511H21.053C20.7965 33.9511 20.5506 34.053 20.3692 34.2343C20.1879 34.4157 20.086 34.6616 20.086 34.9181C20.086 35.1746 20.1879 35.4205 20.3692 35.6019C20.5506 35.7832 20.7965 35.8851 21.053 35.8851H35.627C35.8835 35.8851 36.1294 35.7832 36.3108 35.6019C36.4921 35.4205 36.594 35.1746 36.594 34.9181C36.594 34.6616 36.4921 34.4157 36.3108 34.2343C36.1294 34.053 35.8835 33.9511 35.627 33.9511Z" fill="#3E4148"/>
<path d="M35.627 30.2111H21.053C20.7965 30.2111 20.5506 30.313 20.3692 30.4943C20.1879 30.6757 20.086 30.9216 20.086 31.1781C20.086 31.4346 20.1879 31.6805 20.3692 31.8619C20.5506 32.0432 20.7965 32.1451 21.053 32.1451H35.627C35.8835 32.1451 36.1294 32.0432 36.3108 31.8619C36.4921 31.6805 36.594 31.4346 36.594 31.1781C36.594 30.9216 36.4921 30.6757 36.3108 30.4943C36.1294 30.313 35.8835 30.2111 35.627 30.2111Z" fill="#3E4148"/>
</g>
<defs>
<clipPath id="clip0_2_145">
<rect width="63" height="63" fill="white"/>
</clipPath>
</defs>
</svg>
