<svg width="42" height="42" viewBox="0 0 42 42" fill="none" xmlns="http://www.w3.org/2000/svg">
<path d="M21 42C32.598 42 42 32.598 42 21C42 9.40202 32.598 0 21 0C9.40202 0 0 9.40202 0 21C0 32.598 9.40202 42 21 42Z" fill="#464993"/>
<path d="M23.6511 20.382C24.2676 19.9285 24.7576 19.3246 25.0744 18.6279C25.3911 17.9312 25.5241 17.165 25.4606 16.4023C25.3971 15.6396 25.1393 14.906 24.7116 14.2713C24.284 13.6366 23.7008 13.122 23.0178 12.7767C22.3348 12.4315 21.5747 12.2669 20.8101 12.2989C20.0454 12.3308 19.3017 12.5582 18.6499 12.9592C17.9981 13.3603 17.4599 13.9217 17.0867 14.5899C16.7135 15.258 16.5177 16.0107 16.5181 16.776C16.5169 17.4778 16.6819 18.1698 16.9996 18.7956C17.3174 19.4213 17.7788 19.9629 18.3461 20.376C13.7751 21.992 13.0621 27.569 12.9521 29.24C12.9483 29.2993 12.9566 29.3587 12.9766 29.4146C12.9966 29.4705 13.0279 29.5217 13.0685 29.5651C13.109 29.6085 13.158 29.6431 13.2125 29.6668C13.267 29.6905 13.3257 29.7028 13.3851 29.703H28.6151C28.6745 29.703 28.7334 29.6908 28.788 29.6671C28.8425 29.6435 28.8917 29.6089 28.9323 29.5655C28.973 29.5221 29.0044 29.4708 29.0244 29.4148C29.0445 29.3589 29.0529 29.2993 29.0491 29.24C28.9391 27.576 28.2231 22.008 23.6511 20.382Z" fill="white"/>
<path d="M29.587 20.592C30.0895 20.2235 30.4627 19.7056 30.6531 19.1123C30.8436 18.519 30.8417 17.8806 30.6475 17.2885C30.4534 16.6963 30.0771 16.1807 29.5723 15.8153C29.0675 15.4499 28.4601 15.2535 27.837 15.254C27.3859 15.2547 26.941 15.3594 26.537 15.56C26.707 16.3267 26.7147 17.1204 26.5597 17.8902C26.4047 18.66 26.0904 19.3889 25.637 20.03C27.8823 21.6217 29.408 24.0359 29.882 26.747H32.862C32.9012 26.7471 32.94 26.7391 32.976 26.7236C33.012 26.708 33.0444 26.6853 33.0712 26.6567C33.098 26.6281 33.1187 26.5942 33.1319 26.5573C33.1451 26.5204 33.1506 26.4812 33.148 26.442C33.076 25.34 32.604 21.665 29.587 20.592Z" fill="white"/>
<path d="M16.362 20.03C15.6891 19.0787 15.3298 17.9412 15.334 16.776C15.3343 16.3671 15.3789 15.9594 15.467 15.56C14.8046 15.2347 14.0445 15.1691 13.3362 15.3761C12.6279 15.5831 12.0227 16.0477 11.6398 16.6784C11.2568 17.3092 11.1238 18.0604 11.2669 18.7844C11.41 19.5083 11.8188 20.1524 12.413 20.59C9.39598 21.658 8.92498 25.339 8.85198 26.441C8.8493 26.4802 8.85476 26.5196 8.86801 26.5566C8.88126 26.5936 8.90202 26.6274 8.92898 26.656C8.95592 26.6844 8.98833 26.707 9.02425 26.7225C9.06018 26.7379 9.09887 26.7459 9.13798 26.746H12.124C12.5957 24.0361 14.1189 21.6222 16.362 20.03Z" fill="white"/>
</svg>
