<svg width="17" height="17" viewBox="0 0 17 17" fill="none" xmlns="http://www.w3.org/2000/svg">
<path d="M8.49788 4.86599e-07C6.93162 -0.00052955 5.39571 0.431964 4.05986 1.24969C2.72401 2.06742 1.64024 3.23854 0.928306 4.63364C0.216371 6.02874 -0.0960095 7.59351 0.0256834 9.15503C0.147376 10.7166 0.698405 12.214 1.61788 13.482L0.556878 16.64L3.82388 15.6C4.93046 16.3284 6.19196 16.788 7.50773 16.9422C8.8235 17.0964 10.1571 16.941 11.4021 16.4882C12.6471 16.0355 13.7691 15.298 14.6784 14.3346C15.5878 13.3712 16.2594 12.2086 16.6396 10.9396C17.0198 9.67055 17.0982 8.3302 16.8683 7.02551C16.6385 5.72082 16.1069 4.48791 15.316 3.42516C14.5251 2.36241 13.4967 1.49925 12.3129 0.904555C11.1291 0.309863 9.82265 0.000105138 8.49788 4.86599e-07ZM13.4439 12C13.272 12.311 13.0333 12.58 12.7448 12.7875C12.4563 12.9951 12.1254 13.1359 11.7759 13.2C11.3319 13.295 10.7519 13.37 8.79888 12.56C7.07864 11.7181 5.61732 10.4278 4.56888 8.825C3.99199 8.08571 3.64154 7.19518 3.55988 6.261C3.54882 5.87411 3.62064 5.48933 3.77052 5.13248C3.9204 4.77563 4.14487 4.45496 4.42888 4.192C4.66915 3.9839 4.9804 3.87644 5.29788 3.892C5.40288 3.892 5.49788 3.897 5.58288 3.902C5.83288 3.913 5.95788 3.927 6.12288 4.322C6.32788 4.816 6.82288 6.036 6.88688 6.161C6.92892 6.22933 6.9541 6.30668 6.96036 6.38666C6.96662 6.46664 6.95377 6.54696 6.92288 6.621C6.85308 6.76512 6.76019 6.89686 6.64788 7.011C6.52288 7.155 6.40388 7.266 6.27788 7.421C6.16288 7.556 6.03388 7.7 6.17788 7.95C6.55174 8.58387 7.01633 9.15963 7.55688 9.659C8.13784 10.1906 8.81404 10.6076 9.54988 10.888C9.64779 10.9346 9.75751 10.9505 9.8646 10.9335C9.9717 10.9165 10.0712 10.8676 10.1499 10.793C10.3868 10.5118 10.6084 10.218 10.8139 9.913C10.8744 9.81185 10.9704 9.73685 11.0831 9.70265C11.1959 9.66845 11.3174 9.67748 11.4239 9.728C11.6539 9.808 12.8679 10.408 13.1179 10.528C13.3679 10.648 13.5319 10.713 13.5929 10.818C13.658 11.2179 13.607 11.6282 13.4459 12H13.4439Z" fill="white"/>
</svg>
