<svg width="69" height="69" viewBox="0 0 69 69" fill="none" xmlns="http://www.w3.org/2000/svg">
<path d="M34.5 69C53.5538 69 69 53.5538 69 34.5C69 15.4462 53.5538 0 34.5 0C15.4462 0 0 15.4462 0 34.5C0 53.5538 15.4462 69 34.5 69Z" fill="#464993"/>
<path d="M48.5251 23.2949L47.0021 18.5229C46.8203 17.9538 46.42 17.4802 45.8891 17.2062C45.3582 16.9322 44.7402 16.8803 44.1711 17.0619L16.7091 25.8299C16.14 26.0117 15.6664 26.412 15.3924 26.9429C15.1184 27.4738 15.0665 28.0918 15.2481 28.6609L16.9481 33.9909L18.3161 33.5279V31.7699C18.3161 31.2768 18.4132 30.7884 18.602 30.3329C18.7908 29.8773 19.0675 29.4633 19.4163 29.1147C19.7651 28.7661 20.1792 28.4896 20.6349 28.3011C21.0906 28.1126 21.5789 28.0157 22.0721 28.0159H34.5881L48.5251 23.2949Z" fill="white"/>
<path d="M17.4061 35.4209L18.3171 35.1119V38.2739L17.4061 35.4209Z" fill="white"/>
<path d="M50.033 28.0149L48.983 24.7249L39.27 28.0149H50.033Z" fill="white"/>
<path d="M32.585 41.1559C32.7842 41.1559 32.9752 41.0768 33.1161 40.9359C33.2569 40.7951 33.336 40.6041 33.336 40.4049V35.8999C33.336 35.7007 33.2569 35.5097 33.1161 35.3689C32.9752 35.228 32.7842 35.1489 32.585 35.1489H25.827C25.6279 35.1489 25.4369 35.228 25.296 35.3689C25.1552 35.5097 25.076 35.7007 25.076 35.8999V40.4049C25.076 40.6041 25.1552 40.7951 25.296 40.9359C25.4369 41.0768 25.6279 41.1559 25.827 41.1559H32.585Z" fill="white"/>
<path fill-rule="evenodd" clip-rule="evenodd" d="M50.6061 52.0449C51.2036 52.0449 51.7767 51.8075 52.1992 51.385C52.6217 50.9625 52.8591 50.3894 52.8591 49.7919V31.7709C52.8591 31.1734 52.6217 30.6003 52.1992 30.1778C51.7767 29.7553 51.2036 29.5179 50.6061 29.5179H22.0721C21.4746 29.5179 20.9015 29.7553 20.479 30.1778C20.0565 30.6003 19.8191 31.1734 19.8191 31.7709V49.7919C19.8191 50.3894 20.0565 50.9625 20.479 51.385C20.9015 51.8075 21.4746 52.0449 22.0721 52.0449H50.6061ZM34.8371 40.4059V35.9009C34.8371 35.3034 34.5997 34.7303 34.1772 34.3078C33.7547 33.8853 33.1816 33.6479 32.5841 33.6479H25.8261C25.2286 33.6479 24.6555 33.8853 24.233 34.3078C23.8105 34.7303 23.5731 35.3034 23.5731 35.9009V40.4059C23.5731 41.0034 23.8105 41.5765 24.233 41.999C24.6555 42.4215 25.2286 42.6589 25.8261 42.6589H32.5841C33.1816 42.6589 33.7547 42.4215 34.1772 41.999C34.5997 41.5765 34.8371 41.0034 34.8371 40.4059Z" fill="white"/>
</svg>
