<svg width="69" height="69" viewBox="0 0 69 69" fill="none" xmlns="http://www.w3.org/2000/svg">
<path d="M34.5 69C53.5538 69 69 53.5538 69 34.5C69 15.4462 53.5538 0 34.5 0C15.4462 0 0 15.4462 0 34.5C0 53.5538 15.4462 69 34.5 69Z" fill="#464993"/>
<path d="M48.71 26.293C48.67 25.402 48.67 24.552 48.67 23.702C48.67 23.38 48.5421 23.0712 48.3145 22.8435C48.0868 22.6159 47.778 22.488 47.456 22.488C42.396 22.488 38.55 21.031 35.356 17.914C35.129 17.6916 34.8238 17.5671 34.506 17.5671C34.1883 17.5671 33.8831 17.6916 33.656 17.914C30.456 21.031 26.612 22.488 21.556 22.488C21.2341 22.488 20.9253 22.6159 20.6976 22.8435C20.4699 23.0712 20.342 23.38 20.342 23.702C20.342 24.552 20.342 25.402 20.302 26.293C20.14 34.793 19.902 46.453 34.102 51.352L34.502 51.433L34.902 51.352C49.075 46.454 48.872 34.835 48.71 26.293ZM33.529 38.074C33.2983 38.288 32.9936 38.4041 32.679 38.398H32.639C32.4779 38.3911 32.3197 38.3522 32.1738 38.2835C32.0278 38.2148 31.897 38.1178 31.789 37.998L28.024 33.828L29.846 32.209L32.801 35.488L39.363 29.249L41.023 31.03L33.529 38.074Z" fill="white"/>
</svg>
