<svg width="36" height="36" viewBox="0 0 36 36" fill="none" xmlns="http://www.w3.org/2000/svg">
<g clip-path="url(#clip0_2_90)">
<path d="M18 21.78C20.0876 21.78 21.78 20.0876 21.78 18C21.78 15.9124 20.0876 14.22 18 14.22C15.9123 14.22 14.22 15.9124 14.22 18C14.22 20.0876 15.9123 21.78 18 21.78Z" fill="#4D4F93"/>
<path d="M18 0C14.4399 0 10.9598 1.05568 7.99974 3.03355C5.03966 5.01141 2.73255 7.82263 1.37018 11.1117C0.00779903 14.4008 -0.348661 18.02 0.345873 21.5116C1.04041 25.0033 2.75474 28.2106 5.27209 30.7279C7.78943 33.2453 10.9967 34.9596 14.4884 35.6541C17.98 36.3487 21.5992 35.9922 24.8883 34.6298C28.1774 33.2675 30.9886 30.9603 32.9665 28.0003C34.9443 25.0402 36 21.5601 36 18C36 13.2261 34.1036 8.64773 30.7279 5.27208C27.3523 1.89642 22.7739 0 18 0ZM29.121 22.575C29.1222 24.2928 28.4743 25.9477 27.307 27.208C26.0241 28.3684 24.3539 29.0075 22.624 29H13.376C11.6451 29.0056 9.97462 28.3635 8.69301 27.2C7.52564 25.9397 6.87768 24.2849 6.87901 22.567V13.417C6.87778 11.6992 7.52572 10.0443 8.69301 8.784C9.97707 7.62641 11.6472 6.99017 13.376 7H22.624C24.355 6.99445 26.0254 7.63651 27.307 8.8C28.4743 10.0603 29.1222 11.7152 29.121 13.433V22.575Z" fill="#4D4F93"/>
<path d="M22.507 9.08201C20.254 9.02001 15.746 9.02001 13.493 9.08201C12.2652 9.03822 11.0686 9.47438 10.157 10.298C9.34267 11.2017 8.90319 12.3818 8.928 13.598C8.87 15.798 8.928 22.398 8.928 22.398C8.90551 23.6139 9.34467 24.7931 10.157 25.698C11.0686 26.5217 12.2652 26.9579 13.493 26.914C15.746 26.976 20.254 26.976 22.507 26.914C23.7348 26.9577 24.9313 26.5215 25.843 25.698C26.6573 24.7943 27.0968 23.6143 27.072 22.398V13.598C27.0968 12.3818 26.6573 11.2017 25.843 10.298C24.9314 9.47438 23.7348 9.03822 22.507 9.08201ZM18 23.859C16.8412 23.859 15.7084 23.5154 14.7449 22.8716C13.7814 22.2278 13.0304 21.3127 12.587 20.2421C12.1435 19.1716 12.0275 17.9935 12.2536 16.857C12.4796 15.7204 13.0377 14.6765 13.8571 13.8571C14.6765 13.0377 15.7204 12.4797 16.857 12.2536C17.9935 12.0275 19.1716 12.1435 20.2421 12.587C21.3127 13.0305 22.2278 13.7814 22.8716 14.7449C23.5154 15.7084 23.859 16.8412 23.859 18C23.859 18.7694 23.7075 19.5313 23.413 20.2421C23.1186 20.953 22.687 21.5989 22.1429 22.143C21.5989 22.687 20.953 23.1186 20.2421 23.413C19.5313 23.7075 18.7694 23.859 18 23.859ZM23.884 13.35C23.6522 13.35 23.4256 13.2813 23.2329 13.1525C23.0401 13.0237 22.8899 12.8407 22.8012 12.6265C22.7125 12.4124 22.6893 12.1767 22.7345 11.9494C22.7797 11.722 22.8914 11.5132 23.0553 11.3493C23.2192 11.1854 23.428 11.0737 23.6554 11.0285C23.8827 10.9833 24.1184 11.0065 24.3325 11.0952C24.5467 11.1839 24.7297 11.3341 24.8585 11.5269C24.9873 11.7196 25.056 11.9462 25.056 12.178C25.056 12.4888 24.9325 12.7869 24.7127 13.0067C24.4929 13.2265 24.1948 13.35 23.884 13.35Z" fill="#4D4F93"/>
</g>
<defs>
<clipPath id="clip0_2_90">
<rect width="36" height="36" fill="white"/>
</clipPath>
</defs>
</svg>
