<svg width="36" height="32" viewBox="0 0 36 32" fill="none" xmlns="http://www.w3.org/2000/svg">
<path d="M26 0H10C4.47715 0 0 4.47715 0 10V22C0 27.5228 4.47715 32 10 32H26C31.5228 32 36 27.5228 36 22V10C36 4.47715 31.5228 0 26 0Z" fill="#B7B7B7"/>
<path fill-rule="evenodd" clip-rule="evenodd" d="M25.623 22.869L22.067 15.849C22.0451 15.8047 22.0132 15.7662 21.9737 15.7365C21.9342 15.7068 21.8883 15.6868 21.8397 15.678C21.7911 15.6693 21.7411 15.672 21.6937 15.6861C21.6464 15.7002 21.603 15.7251 21.567 15.759C21.2797 16.0257 20.9897 16.2867 20.697 16.542C19.8203 17.3173 18.9197 18.0667 17.995 18.79C17.159 19.443 16.301 20.076 15.418 20.664C15.3638 20.6992 15.3217 20.7502 15.2974 20.8101C15.273 20.87 15.2677 20.936 15.282 20.999L16.046 24.299L15.246 25.099L13.196 21.038C13.1655 20.9776 13.1164 20.9285 13.056 20.898L9 18.847L9.8 18.047L13.1 18.81C13.1626 18.8249 13.2283 18.8202 13.2882 18.7966C13.3481 18.773 13.3993 18.7316 13.435 18.678C14.025 17.793 14.659 16.934 15.313 16.096C16.0323 15.17 16.7817 14.2663 17.561 13.385C17.817 13.095 18.0757 12.8077 18.337 12.523C18.3709 12.4871 18.3959 12.4438 18.4101 12.3965C18.4242 12.3492 18.4271 12.2992 18.4184 12.2506C18.4098 12.202 18.3899 12.1561 18.3603 12.1166C18.3307 12.077 18.2922 12.045 18.248 12.023L11.225 8.47101L12.614 7.08401L21.095 9.56601C21.1464 9.58166 21.2009 9.5839 21.2535 9.57253C21.306 9.56115 21.3547 9.53653 21.395 9.50101C22.0036 8.96391 22.6484 8.46941 23.325 8.02101C23.7978 7.70287 24.3034 7.43635 24.833 7.22601C25.413 7.00801 26.282 6.81501 26.782 7.31301C27.282 7.81101 27.088 8.68101 26.87 9.26201C26.6602 9.79299 26.3941 10.2999 26.076 10.774C25.6276 11.4506 25.1331 12.0954 24.596 12.704C24.5605 12.7443 24.5358 12.793 24.5242 12.8455C24.5127 12.898 24.5147 12.9525 24.53 13.004L27.013 21.486L25.623 22.869Z" fill="white"/>
</svg>
