<svg width="42" height="42" viewBox="0 0 42 42" fill="none" xmlns="http://www.w3.org/2000/svg">
<path d="M21 42C32.598 42 42 32.598 42 21C42 9.40202 32.598 0 21 0C9.40202 0 0 9.40202 0 21C0 32.598 9.40202 42 21 42Z" fill="#464993"/>
<path d="M34.277 13.782V21.82C34.277 21.82 32.557 22.159 32.202 22.203C31.8224 22.3307 31.4174 22.3637 31.0221 22.2992C30.6269 22.2347 30.2533 22.0747 29.934 21.833C28.693 20.644 24.285 16.26 24.285 16.26C24.0084 16.0346 23.6672 15.9034 23.3109 15.8855C22.9546 15.8675 22.6019 15.9636 22.304 16.16C21.184 16.75 19.523 17.616 18.829 17.953C18.5954 18.0891 18.331 18.1637 18.0607 18.17C17.7904 18.1762 17.5229 18.1139 17.2833 17.9887C17.0436 17.8636 16.8395 17.6798 16.6901 17.4544C16.5407 17.229 16.4509 16.9695 16.429 16.7C16.4436 16.3927 16.5447 16.0957 16.7208 15.8434C16.8968 15.5911 17.1406 15.3937 17.424 15.274C19.006 14.315 22.34 12.444 23.724 11.706C24.568 11.257 25.176 11.219 26.335 12.195C27.762 13.395 29.035 14.489 29.035 14.489C29.189 14.5982 29.3647 14.6731 29.5501 14.7087C29.7356 14.7442 29.9265 14.7395 30.11 14.695C31.732 14.352 34.277 13.782 34.277 13.782ZM16.73 27.402C16.8483 27.1558 16.8919 26.8803 16.8556 26.6096C16.8192 26.3389 16.7045 26.0847 16.5255 25.8784C16.3465 25.6721 16.111 25.5226 15.8482 25.4485C15.5853 25.3743 15.3064 25.3786 15.046 25.461C15.1265 25.2169 15.1406 24.9558 15.0868 24.7045C15.033 24.4532 14.9133 24.2207 14.74 24.031C14.5551 23.8539 14.3275 23.7278 14.0793 23.6649C13.8312 23.602 13.5709 23.6044 13.324 23.672C13.4039 23.4283 13.4176 23.1677 13.3636 22.9169C13.3097 22.6662 13.19 22.4343 13.017 22.245C12.7103 21.9596 12.3038 21.8059 11.8849 21.8169C11.4661 21.8279 11.0683 22.0028 10.777 22.304C10.122 22.932 9.703 24.071 10.287 24.741C10.871 25.411 11.541 25.002 12.052 24.886C11.91 25.393 11.484 25.865 12.008 26.528C12.532 27.191 13.262 26.789 13.773 26.674C13.63 27.179 13.223 27.698 13.727 28.314C14.231 28.93 15.07 28.602 15.621 28.431C15.408 28.977 14.954 29.566 15.538 30.231C16.122 30.896 17.47 30.588 18.129 29.96C18.2843 29.8237 18.4112 29.6581 18.5024 29.4727C18.5937 29.2873 18.6474 29.0857 18.6606 28.8794C18.6738 28.6732 18.6462 28.4664 18.5793 28.2709C18.5125 28.0754 18.4077 27.895 18.271 27.74C18.0709 27.5461 17.8207 27.4117 17.5485 27.352C17.2763 27.2923 16.9929 27.3096 16.73 27.402ZM28.749 23.22C23.987 18.458 26.227 20.699 23.664 18.131C23.4291 17.9111 23.1356 17.7638 22.8189 17.7069C22.5022 17.6499 22.1758 17.6857 21.879 17.81C21.166 18.122 20.249 18.548 19.559 18.873C19.0824 19.1571 18.5498 19.3341 17.998 19.392C17.421 19.3943 16.859 19.208 16.3976 18.8614C15.9363 18.5148 15.6008 18.027 15.4423 17.4722C15.2837 16.9174 15.3109 16.3259 15.5195 15.7879C15.7281 15.2499 16.1069 14.7949 16.598 14.492C17.656 13.76 20.092 12.464 20.092 12.464C19.7882 12.146 19.4194 11.8974 19.0107 11.735C18.6021 11.5726 18.1632 11.5003 17.724 11.523C16.101 11.523 12.706 13.745 12.706 13.745C12.3471 13.9328 11.95 14.036 11.5451 14.0465C11.1402 14.0571 10.7382 13.9748 10.37 13.806L7.724 12.887V22.087C7.724 22.087 8.48 22.306 9.158 22.587C9.31134 22.1428 9.56608 21.7405 9.902 21.412C10.4411 20.8936 11.1581 20.6011 11.906 20.5946C12.6539 20.5881 13.376 20.868 13.924 21.377C14.2291 21.6912 14.4475 22.0792 14.558 22.503C14.9703 22.6291 15.3441 22.8572 15.645 23.166C15.9503 23.4794 16.1691 23.8667 16.28 24.29C16.7143 24.4242 17.1055 24.6705 17.4143 25.0041C17.7231 25.3376 17.9386 25.7467 18.039 26.19C18.4693 26.3151 18.8599 26.5494 19.173 26.87C19.4638 27.1742 19.6788 27.5428 19.8004 27.9457C19.922 28.3487 19.9469 28.7746 19.873 29.189C19.883 29.202 20.255 29.616 20.486 29.85C20.5944 29.9584 20.7231 30.0444 20.8647 30.103C21.0064 30.1617 21.1582 30.1919 21.3115 30.1919C21.4648 30.1919 21.6166 30.1617 21.7583 30.103C21.8999 30.0444 22.0286 29.9584 22.137 29.85C22.2454 29.7416 22.3314 29.6129 22.3901 29.4712C22.4487 29.3296 22.4789 29.1778 22.4789 29.0245C22.4789 28.8712 22.4487 28.7194 22.3901 28.5777C22.3314 28.4361 22.2454 28.3074 22.137 28.199C22.121 28.183 20.499 26.487 20.63 26.355C20.761 26.223 22.83 28.374 22.864 28.413C23.0828 28.6318 23.3796 28.7547 23.689 28.7547C23.9984 28.7547 24.2952 28.6318 24.514 28.413C24.7328 28.1942 24.8557 27.8974 24.8557 27.588C24.8557 27.2785 24.7328 26.9818 24.514 26.763C24.492 26.742 24.399 26.653 24.364 26.617C24.364 26.617 22.316 24.792 22.472 24.636C22.628 24.48 25.172 26.854 25.178 26.854C25.3932 27.0555 25.6776 27.1668 25.9724 27.165C26.2673 27.1632 26.5503 27.0484 26.763 26.8442C26.9758 26.6401 27.1021 26.3621 27.1161 26.0676C27.13 25.773 27.0305 25.4843 26.838 25.261C26.83 25.237 24.899 23.219 25.05 23.067C25.201 22.915 27.114 24.881 27.118 24.885C27.3371 25.1038 27.6341 25.2266 27.9437 25.2264C28.2533 25.2262 28.5502 25.103 28.769 24.884C28.9878 24.6649 29.1106 24.3679 29.1104 24.0583C29.1102 23.7486 28.9871 23.4518 28.768 23.233L28.749 23.22Z" fill="white"/>
</svg>
