<svg width="69" height="69" viewBox="0 0 69 69" fill="none" xmlns="http://www.w3.org/2000/svg">
<path d="M34.5 69C53.5538 69 69 53.5538 69 34.5C69 15.4462 53.5538 0 34.5 0C15.4462 0 0 15.4462 0 34.5C0 53.5538 15.4462 69 34.5 69Z" fill="#464993"/>
<path d="M34.003 15.355C30.097 15.3587 26.352 16.9118 23.5897 19.6735C20.8274 22.4352 19.2735 26.1799 19.269 30.086C19.269 37.764 31.496 50.986 32.89 52.465L34 53.645L35.11 52.465C36.503 50.983 48.731 37.764 48.731 30.086C48.7268 26.1809 47.1739 22.4369 44.4128 19.6753C41.6518 16.9137 37.9081 15.36 34.003 15.355V15.355ZM34.003 36.182C32.7966 36.182 31.6172 35.8242 30.6141 35.1539C29.6109 34.4837 28.8291 33.531 28.3674 32.4163C27.9057 31.3017 27.7849 30.0752 28.0203 28.8919C28.2556 27.7086 28.8366 26.6217 29.6897 25.7686C30.5428 24.9155 31.6297 24.3346 32.813 24.0992C33.9963 23.8638 35.2228 23.9846 36.3374 24.4463C37.452 24.908 38.4047 25.6899 39.075 26.693C39.7453 27.6961 40.103 28.8755 40.103 30.082C40.103 31.6998 39.4604 33.2514 38.3164 34.3953C37.1724 35.5393 35.6209 36.182 34.003 36.182Z" fill="white"/>
</svg>
