<svg width="36" height="36" viewBox="0 0 36 36" fill="none" xmlns="http://www.w3.org/2000/svg">
<path d="M18 36C27.9411 36 36 27.9411 36 18C36 8.05887 27.9411 0 18 0C8.05887 0 0 8.05887 0 18C0 27.9411 8.05887 36 18 36Z" fill="#464993"/>
<path d="M21.604 18.344L29.064 23.06V13.433L21.604 18.344Z" fill="white"/>
<path d="M6.93604 13.433V23.065L14.396 18.349L6.93604 13.433Z" fill="white"/>
<path d="M27.6811 10.624H8.31705C7.98973 10.6271 7.67439 10.7476 7.42845 10.9636C7.18252 11.1796 7.02233 11.4768 6.97705 11.801L18.0001 19.063L29.0231 11.801C28.9777 11.4765 28.8172 11.179 28.5709 10.963C28.3245 10.7469 28.0087 10.6266 27.6811 10.624Z" fill="white"/>
<path d="M20.337 19.179L18.38 20.468C18.2669 20.5421 18.1347 20.5816 17.9995 20.5816C17.8643 20.5816 17.7321 20.5421 17.619 20.468L15.662 19.178L6.979 24.67C7.02605 24.9924 7.18692 25.2873 7.43252 25.5013C7.67812 25.7154 7.99223 25.8344 8.318 25.837H27.681C28.0068 25.8344 28.3209 25.7154 28.5665 25.5013C28.8121 25.2873 28.973 24.9924 29.02 24.67L20.337 19.179Z" fill="white"/>
</svg>
