<svg width="42" height="42" viewBox="0 0 42 42" fill="none" xmlns="http://www.w3.org/2000/svg">
<path d="M21 42C32.598 42 42 32.598 42 21C42 9.40202 32.598 0 21 0C9.40202 0 0 9.40202 0 21C0 32.598 9.40202 42 21 42Z" fill="#464993"/>
<path d="M28.015 14.71V12.864C28.2808 12.7113 28.5017 12.4914 28.6556 12.2263C28.8095 11.9613 28.8911 11.6605 28.892 11.354V10.915C28.892 10.8574 28.8807 10.8004 28.8586 10.7471C28.8365 10.6939 28.8042 10.6456 28.7634 10.6049C28.7226 10.5642 28.6742 10.532 28.621 10.51C28.5677 10.4881 28.5106 10.4769 28.453 10.477H13.546C13.4299 10.477 13.3185 10.5231 13.2363 10.6053C13.1542 10.6874 13.108 10.7988 13.108 10.915V11.354C13.109 11.6605 13.1905 11.9613 13.3445 12.2263C13.4984 12.4914 13.7193 12.7113 13.985 12.864V14.71C13.985 15.5711 14.1658 16.4226 14.5158 17.2094C14.8659 17.9961 15.3773 18.7005 16.017 19.277L17.936 21.004L16.017 22.731C15.3778 23.307 14.8667 24.0108 14.5167 24.7968C14.1666 25.5828 13.9855 26.4336 13.985 27.294V29.141C13.7202 29.2932 13.4998 29.5122 13.346 29.776C13.1921 30.0399 13.1101 30.3395 13.108 30.645V31.083C13.108 31.1992 13.1542 31.3106 13.2363 31.3927C13.3185 31.4748 13.4299 31.521 13.546 31.521H28.453C28.5692 31.521 28.6806 31.4748 28.7627 31.3927C28.8449 31.3106 28.891 31.1992 28.891 31.083V30.645C28.8901 30.3385 28.8085 30.0377 28.6546 29.7726C28.5007 29.5076 28.2798 29.2877 28.014 29.135V27.289C28.0135 26.4286 27.8324 25.5778 27.4824 24.7918C27.1324 24.0058 26.6212 23.302 25.982 22.726L24.063 20.999L25.983 19.277C26.6227 18.7005 27.1342 17.9961 27.4842 17.2094C27.8343 16.4226 28.0151 15.5711 28.015 14.71ZM24.808 17.969L22.167 20.348C22.0763 20.4302 22.0037 20.5305 21.9541 20.6425C21.9044 20.7544 21.8788 20.8755 21.8788 20.998C21.8788 21.1205 21.9044 21.2416 21.9541 21.3535C22.0037 21.4655 22.0763 21.5658 22.167 21.648L24.808 24.03C25.2644 24.4415 25.6294 24.9442 25.8793 25.5055C26.1293 26.0669 26.2586 26.6745 26.259 27.289V28.889H25.159L21.345 23.803C21.3024 23.7514 21.249 23.7099 21.1885 23.6814C21.128 23.6529 21.0619 23.6382 20.995 23.6382C20.9282 23.6382 20.8621 23.6529 20.8016 23.6814C20.7411 23.7099 20.6876 23.7514 20.645 23.803L16.831 28.889H15.731V27.289C15.7314 26.6745 15.8608 26.0669 16.1107 25.5055C16.3607 24.9442 16.7256 24.4415 17.182 24.03L19.825 21.652C19.9158 21.5698 19.9883 21.4695 20.038 21.3575C20.0876 21.2456 20.1133 21.1245 20.1133 21.002C20.1133 20.8795 20.0876 20.7584 20.038 20.6465C19.9883 20.5345 19.9158 20.4342 19.825 20.352L17.19 17.969C16.7336 17.5575 16.3687 17.0548 16.1187 16.4934C15.8688 15.9321 15.7394 15.3245 15.739 14.71V13.11H26.261V14.71C26.2604 15.3246 26.1307 15.9323 25.8804 16.4937C25.6301 17.0551 25.2648 17.5577 24.808 17.969Z" fill="white"/>
<path d="M24.0221 16.615H17.9781C17.8931 16.6147 17.8098 16.6392 17.7385 16.6855C17.6672 16.7317 17.6109 16.7977 17.5764 16.8754C17.542 16.9532 17.5309 17.0392 17.5445 17.1231C17.5581 17.207 17.5958 17.2851 17.6531 17.348L20.7061 20.164C20.7866 20.2369 20.8914 20.2773 21.0001 20.2773C21.1087 20.2773 21.2135 20.2369 21.2941 20.164L24.3461 17.348C24.4033 17.2851 24.441 17.207 24.4547 17.1231C24.4683 17.0392 24.4572 16.9532 24.4227 16.8754C24.3883 16.7977 24.3319 16.7317 24.2606 16.6855C24.1893 16.6392 24.1061 16.6147 24.0211 16.615H24.0221Z" fill="white"/>
</svg>
