<svg width="36" height="36" viewBox="0 0 36 36" fill="none" xmlns="http://www.w3.org/2000/svg">
<path d="M18 36C27.9411 36 36 27.9411 36 18C36 8.05887 27.9411 0 18 0C8.05887 0 0 8.05887 0 18C0 27.9411 8.05887 36 18 36Z" fill="#464993"/>
<path d="M27.475 22.688L24.675 19.888C24.4531 19.6585 24.1758 19.49 23.8699 19.3987C23.564 19.3074 23.2397 19.2964 22.9283 19.3667C22.6169 19.437 22.3288 19.5863 22.0918 19.8002C21.8548 20.0141 21.6768 20.2854 21.575 20.588C21.4163 21.0209 21.1057 21.3813 20.7009 21.6021C20.2961 21.8229 19.8249 21.889 19.375 21.788C18.1821 21.3569 17.0989 20.6681 16.2027 19.7704C15.3065 18.8728 14.6193 17.7886 14.19 16.595C14.0676 16.1443 14.1241 15.6637 14.3477 15.2538C14.5714 14.8438 14.9448 14.5361 15.39 14.395C15.6926 14.2932 15.9639 14.1153 16.1778 13.8783C16.3917 13.6412 16.541 13.3532 16.6113 13.0418C16.6817 12.7303 16.6706 12.4061 16.5793 12.1001C16.488 11.7942 16.3195 11.5169 16.09 11.295L13.29 8.49501C12.9213 8.15771 12.4397 7.97064 11.94 7.97064C11.4403 7.97064 10.9587 8.15771 10.59 8.49501L8.69003 10.395C6.79003 12.395 8.89003 17.687 13.585 22.382C18.28 27.077 23.58 29.279 25.577 27.279L27.477 25.379C27.8115 25.0106 27.9967 24.5307 27.9963 24.0331C27.9959 23.5355 27.8101 23.0559 27.475 22.688Z" fill="white"/>
</svg>
